<?xml version="1.0" encoding="UTF-8"?>
<svg xmlns="http://www.w3.org/2000/svg" xmlns:xlink="http://www.w3.org/1999/xlink" width="2560pt" height="1440pt" viewBox="0 0 2560 1440" version="1.1">
<g id="surface1">
<path style="fill:none;stroke-width:5;stroke-linecap:butt;stroke-linejoin:miter;stroke:rgb(0%,0%,0%);stroke-opacity:1;stroke-miterlimit:10;" d="M 503 314 Z M 503 314 "/>
<path style="fill:none;stroke-width:2;stroke-linecap:butt;stroke-linejoin:miter;stroke:rgb(0%,0%,0%);stroke-opacity:1;stroke-miterlimit:10;" d="M 513 319 C 513 325.667969 503 325.667969 503 319 C 503 312.332031 513 312.332031 513 319 Z M 513 319 "/>
<path style="fill:none;stroke-width:5;stroke-linecap:butt;stroke-linejoin:miter;stroke:rgb(0%,0%,0%);stroke-opacity:1;stroke-miterlimit:10;" d="M 503 314 L 502 316 Z M 503 314 "/>
<path style="fill:none;stroke-width:2;stroke-linecap:butt;stroke-linejoin:miter;stroke:rgb(0%,0%,0%);stroke-opacity:1;stroke-miterlimit:10;" d="M 512 321 C 512 327.667969 502 327.667969 502 321 C 502 314.332031 512 314.332031 512 321 Z M 512 321 "/>
<path style="fill:none;stroke-width:5;stroke-linecap:butt;stroke-linejoin:miter;stroke:rgb(0%,0%,0%);stroke-opacity:1;stroke-miterlimit:10;" d="M 503 314 L 502 316 L 502 323 Z M 503 314 "/>
<path style="fill:none;stroke-width:2;stroke-linecap:butt;stroke-linejoin:miter;stroke:rgb(0%,0%,0%);stroke-opacity:1;stroke-miterlimit:10;" d="M 512 328 C 512 334.667969 502 334.667969 502 328 C 502 321.332031 512 321.332031 512 328 Z M 512 328 "/>
<path style="fill:none;stroke-width:5;stroke-linecap:butt;stroke-linejoin:miter;stroke:rgb(0%,0%,0%);stroke-opacity:1;stroke-miterlimit:10;" d="M 503 314 L 502 316 L 502 323 L 499 341 Z M 503 314 "/>
<path style="fill:none;stroke-width:2;stroke-linecap:butt;stroke-linejoin:miter;stroke:rgb(0%,0%,0%);stroke-opacity:1;stroke-miterlimit:10;" d="M 509 346 C 509 352.667969 499 352.667969 499 346 C 499 339.332031 509 339.332031 509 346 Z M 509 346 "/>
<path style="fill:none;stroke-width:5;stroke-linecap:butt;stroke-linejoin:miter;stroke:rgb(0%,0%,0%);stroke-opacity:1;stroke-miterlimit:10;" d="M 503 314 L 502 316 L 502 323 L 499 341 L 498 363 Z M 503 314 "/>
<path style="fill:none;stroke-width:2;stroke-linecap:butt;stroke-linejoin:miter;stroke:rgb(0%,0%,0%);stroke-opacity:1;stroke-miterlimit:10;" d="M 508 368 C 508 374.667969 498 374.667969 498 368 C 498 361.332031 508 361.332031 508 368 Z M 508 368 "/>
<path style="fill:none;stroke-width:5;stroke-linecap:butt;stroke-linejoin:miter;stroke:rgb(0%,0%,0%);stroke-opacity:1;stroke-miterlimit:10;" d="M 503 314 L 502 316 L 502 323 L 499 341 L 498 363 L 494 407 Z M 503 314 "/>
<path style="fill:none;stroke-width:2;stroke-linecap:butt;stroke-linejoin:miter;stroke:rgb(0%,0%,0%);stroke-opacity:1;stroke-miterlimit:10;" d="M 504 412 C 504 418.667969 494 418.667969 494 412 C 494 405.332031 504 405.332031 504 412 Z M 504 412 "/>
<path style="fill:none;stroke-width:5;stroke-linecap:butt;stroke-linejoin:miter;stroke:rgb(0%,0%,0%);stroke-opacity:1;stroke-miterlimit:10;" d="M 503 314 L 502 316 L 502 323 L 499 341 L 498 363 L 494 407 L 477 492 Z M 503 314 "/>
<path style="fill:none;stroke-width:2;stroke-linecap:butt;stroke-linejoin:miter;stroke:rgb(0%,0%,0%);stroke-opacity:1;stroke-miterlimit:10;" d="M 487 497 C 487 503.667969 477 503.667969 477 497 C 477 490.332031 487 490.332031 487 497 Z M 487 497 "/>
<path style="fill:none;stroke-width:5;stroke-linecap:butt;stroke-linejoin:miter;stroke:rgb(0%,0%,0%);stroke-opacity:1;stroke-miterlimit:10;" d="M 503 314 L 502 316 L 502 323 L 499 341 L 498 363 L 494 407 L 477 492 L 462 549 Z M 503 314 "/>
<path style="fill:none;stroke-width:2;stroke-linecap:butt;stroke-linejoin:miter;stroke:rgb(0%,0%,0%);stroke-opacity:1;stroke-miterlimit:10;" d="M 472 554 C 472 560.667969 462 560.667969 462 554 C 462 547.332031 472 547.332031 472 554 Z M 472 554 "/>
<path style="fill:none;stroke-width:5;stroke-linecap:butt;stroke-linejoin:miter;stroke:rgb(0%,0%,0%);stroke-opacity:1;stroke-miterlimit:10;" d="M 503 314 L 502 316 L 502 323 L 499 341 L 498 363 L 494 407 L 477 492 L 462 549 L 457 566 Z M 503 314 "/>
<path style="fill:none;stroke-width:2;stroke-linecap:butt;stroke-linejoin:miter;stroke:rgb(0%,0%,0%);stroke-opacity:1;stroke-miterlimit:10;" d="M 467 571 C 467 577.667969 457 577.667969 457 571 C 457 564.332031 467 564.332031 467 571 Z M 467 571 "/>
<path style="fill:none;stroke-width:5;stroke-linecap:butt;stroke-linejoin:miter;stroke:rgb(0%,0%,0%);stroke-opacity:1;stroke-miterlimit:10;" d="M 503 314 L 502 316 L 502 323 L 499 341 L 498 363 L 494 407 L 477 492 L 462 549 L 457 566 L 451 592 Z M 503 314 "/>
<path style="fill:none;stroke-width:2;stroke-linecap:butt;stroke-linejoin:miter;stroke:rgb(0%,0%,0%);stroke-opacity:1;stroke-miterlimit:10;" d="M 461 597 C 461 603.667969 451 603.667969 451 597 C 451 590.332031 461 590.332031 461 597 Z M 461 597 "/>
<path style="fill:none;stroke-width:5;stroke-linecap:butt;stroke-linejoin:miter;stroke:rgb(0%,0%,0%);stroke-opacity:1;stroke-miterlimit:10;" d="M 503 314 L 502 316 L 502 323 L 499 341 L 498 363 L 494 407 L 477 492 L 462 549 L 457 566 L 451 592 L 446 610 Z M 503 314 "/>
<path style="fill:none;stroke-width:2;stroke-linecap:butt;stroke-linejoin:miter;stroke:rgb(0%,0%,0%);stroke-opacity:1;stroke-miterlimit:10;" d="M 456 615 C 456 621.667969 446 621.667969 446 615 C 446 608.332031 456 608.332031 456 615 Z M 456 615 "/>
<path style="fill:none;stroke-width:5;stroke-linecap:butt;stroke-linejoin:miter;stroke:rgb(0%,0%,0%);stroke-opacity:1;stroke-miterlimit:10;" d="M 503 314 L 502 316 L 502 323 L 499 341 L 498 363 L 494 407 L 477 492 L 462 549 L 457 566 L 451 592 L 446 610 L 443 615 Z M 503 314 "/>
<path style="fill:none;stroke-width:2;stroke-linecap:butt;stroke-linejoin:miter;stroke:rgb(0%,0%,0%);stroke-opacity:1;stroke-miterlimit:10;" d="M 453 620 C 453 626.667969 443 626.667969 443 620 C 443 613.332031 453 613.332031 453 620 Z M 453 620 "/>
<path style="fill:none;stroke-width:5;stroke-linecap:butt;stroke-linejoin:miter;stroke:rgb(0%,0%,0%);stroke-opacity:1;stroke-miterlimit:10;" d="M 503 314 L 502 316 L 502 323 L 499 341 L 498 363 L 494 407 L 477 492 L 462 549 L 457 566 L 451 592 L 446 610 L 443 615 L 443 617 Z M 503 314 "/>
<path style="fill:none;stroke-width:2;stroke-linecap:butt;stroke-linejoin:miter;stroke:rgb(0%,0%,0%);stroke-opacity:1;stroke-miterlimit:10;" d="M 453 622 C 453 628.667969 443 628.667969 443 622 C 443 615.332031 453 615.332031 453 622 Z M 453 622 "/>
<path style="fill:none;stroke-width:5;stroke-linecap:butt;stroke-linejoin:miter;stroke:rgb(0%,0%,0%);stroke-opacity:1;stroke-miterlimit:10;" d="M 503 314 L 502 316 L 502 323 L 499 341 L 498 363 L 494 407 L 477 492 L 462 549 L 457 566 L 451 592 L 446 610 L 443 615 L 443 617 Z M 503 314 "/>
</g>
</svg>
